<svg xmlns="http://www.w3.org/2000/svg" xmlns:xlink="http://www.w3.org/1999/xlink" fill="none" version="1.1" width="183.78125" height="60" viewBox="0 0 183.78125 60"><g style="mix-blend-mode:passthrough"><path d="M12.8572,6.42859C12.8572,8.20388,12.1376,9.8111,10.9741,10.9745C13.9371,16.9512,15.4219,23.2788,15.4286,29.9574C15.4324,33.7597,14.9568,37.4491,14.0018,41.0259C18.8127,36.0695,24.6805,32.4922,31.6053,30.2942L31.7179,30.6489C31.7155,30.5758,31.7142,30.5023,31.7142,30.4286C31.7142,26.8782,34.5924,24,38.1428,24C41.6932,24,44.5714,26.8782,44.5714,30.4286C44.5714,33.979,41.6932,36.8572,38.1428,36.8572C35.5877,36.8572,33.3808,35.3666,32.3442,33.2075C23.4013,36.085,16.3641,41.449,11.2326,49.2995C12.2432,50.4352,12.8572,51.9316,12.8572,53.5714C12.8572,57.1218,9.979,60,6.42859,60C2.87817,60,0,57.1218,0,53.5714C0,50.021,2.87817,47.1428,6.42859,47.1428C7.11802,47.1428,7.7821,47.2514,8.40469,47.4523C11.0934,41.9387,12.4347,36.108,12.4286,29.9603C12.4225,23.8391,11.0811,18.035,8.40471,12.5477C7.78212,12.7486,7.11803,12.8572,6.42859,12.8572C2.87817,12.8572,0,9.979,0,6.42859C0,2.87817,2.87817,0,6.42859,0C9.979,0,12.8572,2.87817,12.8572,6.42859ZM80.4375,8.98438L75.9375,8.98438Q70.875,8.98438,66.0938,10.1094L66.0938,56.9844L74.8125,56.9844Q78.1875,56.9844,83.8125,56.4219Q99.8438,49.0312,100.125,30.5625L99.8438,26.875Q96.75,10.125,80.4375,8.98438ZM175.344,14.2656Q173.094,9.20312,162.688,9.48438Q156.781,10.0469,152.844,13.7031Q143.844,23.2656,144.406,43.5156Q147.219,54.8906,158.75,55.9844Q164.938,55.9844,172.25,48.9531L173.375,47.5469L173.375,48.6719Q173.094,52.0469,173.375,56.9844L177.031,56.9844Q177.093,56.9844,177.154,56.974Q179.825,56.515,179,35.7031L182.094,35.9844L183.781,33.4062Q183.781,31.4062,179.844,29.9844L175.625,29.9844L160.719,30.5312L160.719,32.9844Q160.719,35.1719,164.938,35.9844L172.25,35.9844L172.25,37.6719Q166.062,49.7031,160.156,49.9844L155.938,49.1406Q152.562,47.4531,151.156,42.9531Q149.75,37.6094,152,27.7656Q155.656,17.0781,161.562,15.3906L164.656,15.1094Q167.188,15.1094,175.344,16.5156L175.344,14.2656ZM139.406,9.98438L136.312,9.98438Q134.344,9.98438,133.781,12.4844L133.781,21.9375Q134.54,13.9683,134.958,13.9862Q135.469,14.008,135.469,25.9844L123.375,25.9844Q122.531,25.9844,115.781,25.4219Q112.406,25.7031,112.406,25.9844L112.406,24.3594Q112.406,21.6406,112.969,10.7969L110.719,9.98438L107.625,9.98438Q106.219,23.3438,104.812,47.4531L104.812,52.5156Q106.5,55.6094,108.188,55.6094L110.156,55.6094Q111.281,51.3906,111.844,31.7031L111.844,31.9844L132.656,31.9844L132.656,41.25Q132.656,43.5,132.375,49.6875Q131.392,54.198,133.157,55.968Q133.917,56.7304,135.188,56.9844Q137.156,56.9844,138.281,53.375Q138.281,45.8594,139.406,26.9531L139.406,9.98438ZM72,43.0156L72,13.9844Q90.2812,13.7031,92.8125,25.0781Q94.7812,34.1875,91.6875,39.8906Q86.9062,48.7031,78.1875,50.7031L71.1704,50.9838Q72,50.9172,72,43.0156Z" fill-rule="evenodd" fill="#FFFFFF" fill-opacity="1"/></g></svg>